# xmcd
#
# Track frame offsets: 
#        150
#        22275
#        48600
#        101925
#        133425
#        153375
#        178875
#        196125
#        222975
#        247800
#        279475
#
# Disc length: 4031 seconds
#
# Revision: 0
# Processed by: cddbd v1.5.1PL0 Copyright (c) Steve Scherf et al.
# Submitted via: ExactAudioCopy v0.95a5
#
DISCID=ac0fbd0b
DTITLE=Rockets - Out of the blue
DYEAR=1994
DGENRE=Blues
TTITLE0=(I Got The) Same Old Blues
TTITLE1=Why I Sing The Blues
TTITLE2=Sweet Little Angel
TTITLE3=Smokestack Lightning
TTITLE4=I Got A Mind To Travel
TTITLE5=Stop Breaking Down
TTITLE6=When The War Is Over
TTITLE7=Every Day I Have The Blues
TTITLE8=I´m Ready
TTITLE9=Look Over Yonder´s Wall
TTITLE10=Great Balls Of Fire
EXTD=
EXTT0=
EXTT1=
EXTT2=
EXTT3=
EXTT4=
EXTT5=
EXTT6=
EXTT7=
EXTT8=
EXTT9=
EXTT10=
PLAYORDER=
